<?xml version="1.0" standalone="no"?>
<!DOCTYPE svg PUBLIC "-//W3C//DTD SVG 20010904//EN"
 "http://www.w3.org/TR/2001/REC-SVG-20010904/DTD/svg10.dtd">
<svg version="1.0" xmlns="http://www.w3.org/2000/svg"
 width="300.000000pt" height="300.000000pt" viewBox="0 0 300.000000 300.000000"
 preserveAspectRatio="xMidYMid meet">
<metadata>
Created by potrace 1.10, written by Peter Selinger 2001-2011
</metadata>
<g transform="translate(0.000000,300.000000) scale(0.100000,-0.100000)"
fill="#000000" stroke="none">
<path d="M1577 2141 c-38 -43 -72 -100 -63 -108 3 -3 21 12 42 33 l36 39 -6
-61 c-6 -67 1 -80 72 -120 19 -10 43 -37 54 -59 11 -21 45 -62 74 -91 48 -46
53 -55 45 -76 -14 -37 -37 -56 -84 -69 -52 -14 -82 -40 -115 -104 -22 -41 -26
-64 -27 -130 0 -44 4 -97 8 -117 9 -37 9 -37 -29 -44 -57 -11 -220 3 -308 26
-100 25 -190 66 -184 82 3 7 21 58 41 113 170 466 184 496 279 595 50 50 53
52 58 30 10 -43 27 -32 34 21 10 78 -4 83 -65 24 -65 -64 -133 -151 -165 -212
-28 -54 -215 -558 -217 -586 -2 -22 94 -67 211 -99 63 -18 106 -22 234 -22 86
-1 160 2 164 6 3 4 -4 35 -16 68 -54 144 -3 290 113 324 60 17 79 34 103 91
15 38 15 40 -4 55 -11 8 -36 28 -56 43 -20 16 -44 46 -52 68 -19 47 -74 98
-116 106 -27 5 -29 9 -24 37 13 67 19 176 8 176 -5 0 -26 -18 -45 -39z"/>
<path d="M504 2030 c0 -58 1 -81 3 -52 2 28 2 76 0 105 -2 28 -3 5 -3 -53z"/>
<path d="M2494 2030 c0 -58 1 -81 3 -52 2 28 2 76 0 105 -2 28 -3 5 -3 -53z"/>
<path d="M1183 2013 c27 -2 47 -7 45 -11 -2 -4 -16 -31 -31 -60 -16 -30 -27
-55 -25 -57 2 -2 20 28 40 66 l37 69 -57 -2 -57 -2 48 -3z"/>
<path d="M1458 1033 c23 -2 61 -2 85 0 23 2 4 4 -43 4 -47 0 -66 -2 -42 -4z"/>
<path d="M623 753 c26 -2 67 -2 90 0 23 2 2 3 -48 3 -49 0 -68 -1 -42 -3z"/>
<path d="M1532 603 l2 -158 3 152 4 152 62 4 62 3 -67 2 -68 2 2 -157z"/>
<path d="M1768 753 c17 -2 47 -2 65 0 17 2 3 4 -33 4 -36 0 -50 -2 -32 -4z"/>
<path d="M2174 565 c0 -66 1 -92 3 -57 2 34 2 88 0 120 -2 31 -3 3 -3 -63z"/>
<path d="M2310 644 c0 -21 4 -33 10 -29 6 3 10 19 10 36 0 16 -4 29 -10 29 -5
0 -10 -16 -10 -36z"/>
</g>
</svg>
